PathFileType	4	(X/Y/Z)	C:/Users/opensim2020/Desktop/walking_exp_matlab/subject02_walking10_straight_02.trc	
DataRate	CameraRate	NumFrames	NumMarkers	Units	OrigDataRate	OrigDataStartFrame	OrigNumFrames	
100.00	100.00	7	43	mm	100.00	1540	280	
Frame#	Time	LFHD			RFHD			LBHD			RBHD			C7			T10			CLAV			STRN			RBAK			LSHO			LUPA			LELB			LFRM			LWRA			LWRB			LFIN			RSHO			RUPA			RELB			RFRM			RWRA			RWRB			RFIN			LASI			RASI			LPSI			RPSI			LTHI			LKNE			LTIB			LANK			LHEE			LTOE			RTHI			RKNE			RTIB			RANK			RHEE			RTOE			*39			*40			*41			*42			
		X1	Y1	Z1	X2	Y2	Z2	X3	Y3	Z3	X4	Y4	Z4	X5	Y5	Z5	X6	Y6	Z6	X7	Y7	Z7	X8	Y8	Z8	X9	Y9	Z9	X10	Y10	Z10	X11	Y11	Z11	X12	Y12	Z12	X13	Y13	Z13	X14	Y14	Z14	X15	Y15	Z15	X16	Y16	Z16	X17	Y17	Z17	X18	Y18	Z18	X19	Y19	Z19	X20	Y20	Z20	X21	Y21	Z21	X22	Y22	Z22	X23	Y23	Z23	X24	Y24	Z24	X25	Y25	Z25	X26	Y26	Z26	X27	Y27	Z27	X28	Y28	Z28	X29	Y29	Z29	X30	Y30	Z30	X31	Y31	Z31	X32	Y32	Z32	X33	Y33	Z33	X34	Y34	Z34	X35	Y35	Z35	X36	Y36	Z36	X37	Y37	Z37	X38	Y38	Z38	X39	Y39	Z39	X40	Y40	Z40	X41	Y41	Z41	X42	Y42	Z42	X43	Y43	Z43	

141	1.400	-1031.34082	21.97305	1756.96851	-1172.74109	27.32923	1729.47583	-1011.83997	147.40157	1675.84351	-1152.92810	164.71831	1646.45251	-1086.23499	197.70821	1534.40320	-1102.94421	254.56343	1260.37952	-1062.42615	60.35518	1463.99207	-1071.42139	10.42926	1290.99219	-1161.30933	250.30649	1364.12378	-899.74036	143.64957	1506.12744	-823.79553	183.55040	1306.85864	-817.53430	202.66463	1166.40161	-807.59039	205.12575	1034.27295	-838.81873	157.15677	904.68378	-807.97766	204.51190	910.51678	-806.57184	190.49915	844.55750	-1263.44690	98.95142	1502.59961	-1357.66296	105.68455	1314.51050	-1380.16895	79.08674	1170.28113	-1395.95667	33.06196	1058.70386	-1371.92444	-28.55553	939.73145	-1410.69470	11.33218	931.06750	-1409.32178	-35.30019	875.55243	-954.78363	32.45216	998.40875	-1210.04272	15.42838	984.46851	-1048.62122	235.65302	1040.86523	-1163.98010	232.85524	1041.36255	-879.96252	49.03977	693.64587	-895.10297	26.80225	504.76840	-911.37329	141.37433	356.58353	-944.04132	216.26819	147.68715	-1004.96167	243.34048	128.12234	-894.23602	97.86188	61.48724	-1265.80078	87.49311	674.08313	-1213.04675	92.50101	465.49985	-1210.84692	138.02959	281.45688	-1162.51868	161.91814	92.18876	-1103.57751	196.87958	40.36510	-1180.86414	11.51303	38.66737	-1120.34204	131.18753	1811.01050	-3360.38306	2845.14453	1034.23914						 
142	1.410	-1031.49146	13.77536	1756.44067	-1172.68530	19.11041	1729.59253	-1012.75293	139.96022	1676.13147	-1153.46130	156.98114	1647.13220	-1087.24438	190.51662	1534.76929	-1103.93176	247.83473	1260.83997	-1063.10254	53.29858	1464.21301	-1072.71716	3.78116	1291.26221	-1162.40869	243.06976	1364.63452	-900.73755	137.31601	1505.91296	-824.87506	178.67883	1306.99536	-818.52014	198.49750	1166.71802	-808.27643	200.40553	1034.32593	-839.00635	153.01765	904.68890	-808.89941	200.77756	910.81738	-806.81018	186.53394	844.94287	-1264.27466	91.39419	1503.61267	-1359.18604	96.09989	1315.70105	-1381.44434	68.28032	1171.45398	-1397.31104	21.19638	1060.45190	-1372.81018	-40.93464	941.87537	-1412.16418	-1.63005	933.00079	-1410.47473	-48.72836	877.85583	-956.66516	24.98887	999.31104	-1211.87817	9.65329	983.92975	-1048.67114	229.05144	1041.59937	-1163.97229	226.91618	1041.39441	-880.44928	39.88480	694.86530	-896.18066	15.54389	505.35513	-911.21234	124.34954	351.63147	-942.84015	190.11250	139.48604	-1003.26227	216.81102	118.45848	-893.37366	67.78974	58.89338	-1265.98694	83.83318	673.72919	-1213.49316	90.12324	465.44962	-1210.80176	136.83514	281.52039	-1162.33057	161.71013	92.30663	-1103.47205	196.84917	40.56088	-1181.07739	11.49375	38.74185	-1120.32458	122.67310	1811.48181	-3357.32153	2846.02075	1034.13977						 
143	1.420	-1030.90869	6.03170	1756.27612	-1172.55090	10.93075	1729.62573	-1013.13245	132.49170	1676.23755	-1154.48315	149.43680	1648.16162	-1088.13184	183.33978	1535.04944	-1104.77039	241.10538	1261.14111	-1063.76477	46.26036	1464.24292	-1074.06067	-3.04354	1291.27673	-1163.87671	235.91470	1365.11682	-901.66901	130.98891	1505.56641	-826.07208	173.75053	1306.88184	-819.30157	194.32080	1166.68713	-809.46039	196.76749	1034.22070	-839.08075	148.86421	904.80688	-809.68787	197.11331	910.73035	-806.98199	182.53410	845.14825	-1264.94714	83.72123	1504.39490	-1360.47864	86.72130	1316.68420	-1382.88672	57.57162	1172.64795	-1398.57983	9.43746	1062.08997	-1373.81702	-53.44383	943.94421	-1413.50854	-14.55083	934.92621	-1411.52197	-62.01027	880.01355	-957.99969	17.17558	1000.05615	-1213.59692	3.95231	983.21234	-1048.78052	222.47562	1042.26465	-1163.93762	220.82767	1041.44263	-880.82153	30.76978	696.15253	-897.23987	4.82015	505.61047	-910.78180	107.26435	346.38638	-941.23743	163.49760	131.44714	-1001.71509	189.77362	109.45931	-892.51825	37.44885	56.07347	-1265.96509	80.33293	673.42963	-1213.12207	87.70187	464.92349	-1210.78406	135.53975	281.55319	-1162.17810	161.50267	92.45305	-1103.30957	196.66298	40.75260	-1181.16248	11.38549	38.61901	-1120.02197	114.29749	1811.67627	-3357.26563	2845.84912	1034.21082						 
144	1.430	-1030.58240	-1.82016	1755.84229	-1172.40112	2.64464	1729.47302	-1013.46521	125.01704	1676.24402	-1154.99902	141.94817	1648.55725	-1088.95911	176.14563	1535.22290	-1105.51904	234.40324	1261.38977	-1064.46814	39.21566	1464.13794	-1075.34619	-9.90596	1291.20227	-1165.20789	228.81100	1365.51575	-902.56396	124.58505	1505.10046	-827.19159	168.35265	1306.71130	-820.34534	189.58148	1166.68359	-810.25769	192.71564	1034.33142	-838.87756	144.42747	904.93646	-810.42957	192.95105	910.70850	-807.08234	178.68474	845.32019	-1265.60632	76.15148	1504.96277	-1361.16711	77.55301	1317.31189	-1384.19153	46.96587	1173.70349	-1399.69458	-2.17016	1063.54602	-1374.85718	-66.24239	946.22626	-1414.60144	-27.30633	936.57629	-1412.40466	-75.24446	882.20734	-959.30511	9.74454	1000.37128	-1215.10181	-1.85918	982.41138	-1048.71741	215.73607	1042.55493	-1163.89978	214.68205	1041.46851	-881.50464	21.52902	697.57758	-898.46515	-5.27471	505.55109	-910.17450	90.09057	341.05020	-939.62097	136.73077	123.77343	-999.95355	161.99905	100.39918	-891.58765	7.20329	53.42752	-1266.05164	76.65545	673.01312	-1213.15320	85.23488	464.60272	-1210.69250	134.17883	281.56946	-1162.05212	161.27563	92.58015	-1103.41516	196.59877	40.75194	-1181.28467	11.49368	38.45920	-1120.00171	105.79135	1812.15527	-3360.50806	2845.19629	1033.99402						 
145	1.440	-1030.26184	-9.80211	1755.16663	-1171.89026	-5.40066	1729.36658	-1013.66583	117.51951	1676.13672	-1155.26709	134.16800	1648.90674	-1089.79675	168.98558	1535.28430	-1106.19482	227.69940	1261.47729	-1065.17578	32.14318	1463.94666	-1076.58850	-16.79419	1290.81738	-1166.81030	221.78110	1365.98059	-903.31433	118.06788	1504.55627	-828.27026	162.98656	1306.52515	-821.23175	184.83762	1166.52771	-810.93958	188.44702	1034.17114	-838.71765	139.92134	904.70410	-811.10443	188.85011	910.58624	-807.16089	174.63765	845.18005	-1266.06775	68.43039	1505.30005	-1363.12427	68.45518	1318.26721	-1385.40247	36.47241	1174.61035	-1400.72522	-13.67194	1064.91846	-1375.56750	-78.58535	948.21637	-1415.64087	-40.04669	938.16663	-1413.19946	-88.41700	884.30383	-960.64911	2.67563	1000.23029	-1216.43726	-7.63406	981.52551	-1048.67346	208.96997	1042.61621	-1163.89722	208.46419	1041.48315	-881.93542	12.74922	698.49207	-899.52264	-15.00560	505.27951	-909.45337	72.88081	335.81891	-937.86945	109.68932	116.61415	-998.20648	134.12900	92.43372	-890.75793	-23.12477	51.39763	-1266.23486	72.80674	672.55133	-1213.62939	82.78944	464.52347	-1210.64343	132.88968	281.57480	-1161.93115	161.03423	92.68176	-1103.08252	196.55000	40.87120	-1181.38818	11.47822	38.28361	-1119.69324	97.38491	1812.29199	-3357.35449	2845.92554	1034.36768						 
146	1.450	-1029.65698	-17.47594	1754.28857	-1171.56018	-13.51337	1729.13245	-1013.77216	110.06496	1675.81665	-1155.30042	126.33680	1649.11267	-1090.45496	161.78423	1535.24768	-1106.74744	220.95091	1261.50574	-1065.63965	25.09959	1463.65771	-1077.73730	-23.51526	1290.63843	-1167.84192	214.78191	1366.13245	-904.06232	111.48312	1503.94775	-829.41980	157.33163	1305.83911	-822.64990	179.93797	1166.18713	-811.70380	183.76355	1033.70667	-838.53864	135.15701	904.35498	-811.71863	184.81647	910.30322	-807.10583	170.31068	844.92450	-1266.64441	61.04958	1505.69189	-1363.60901	59.44301	1318.56140	-1386.49951	26.15896	1175.38184	-1401.62146	-25.10610	1066.21143	-1376.02808	-90.38101	949.68756	-1416.54834	-52.68902	939.67114	-1413.80383	-101.54967	886.27917	-961.34082	-4.82265	1000.18286	-1217.51843	-13.63345	980.63147	-1048.66516	202.18604	1042.58850	-1163.80664	202.09538	1041.37524	-882.57385	3.76998	699.18567	-900.65900	-24.29567	504.70752	-909.02893	55.82390	330.79773	-935.98547	82.60774	109.93193	-996.04395	106.26864	84.79790	-889.88007	-53.57615	50.38427	-1266.28552	68.96555	672.09314	-1213.56238	80.31322	464.12360	-1210.57239	131.62672	281.52344	-1161.77502	160.80688	92.77556	-1102.62830	196.54005	40.75694	-1181.57068	11.44088	38.18416	-1119.37305	89.08651	1812.29736	-3360.29517	2845.19873	1034.17615						 
147	1.460	-1029.48425	-25.49605	1753.27930	-1171.12146	-21.63990	1728.67957	-1013.94366	102.61298	1675.50769	-1155.47131	118.56252	1649.38928	-1091.05994	154.56645	1535.07568	-1107.18311	214.19644	1261.43616	-1066.21790	17.93819	1463.17981	-1078.72034	-30.43362	1290.17285	-1168.38232	207.60577	1366.09399	-904.80817	104.76190	1503.06689	-830.35059	151.88354	1305.46692	-823.23645	174.70042	1165.83105	-812.41656	179.05467	1033.44678	-838.18060	130.12183	904.04077	-812.32153	180.08516	909.87573	-807.14624	165.55415	844.57501	-1266.95093	53.41364	1505.69409	-1364.72375	50.68366	1318.97449	-1387.50012	15.95173	1176.05066	-1402.38025	-36.36765	1067.31995	-1376.55127	-102.87896	951.66449	-1417.23096	-65.12856	941.06781	-1414.28772	-114.49806	888.09668	-961.98761	-12.14949	999.86572	-1218.45850	-19.55441	979.86102	-1048.56006	195.21468	1042.26270	-1163.73291	195.76067	1041.17737	-883.03406	-4.72740	699.53137	-901.66132	-33.10865	503.87598	-909.21320	38.60530	325.93930	-934.03900	55.24765	103.94157	-993.73071	78.66890	77.70664	-888.90704	-83.89408	50.40864	-1266.40198	64.84247	671.67242	-1213.15210	77.84335	463.66229	-1210.52063	130.46315	281.52097	-1161.59229	160.57805	92.88675	-1102.60657	196.60800	41.18929	-1181.74268	11.42550	38.03839	-1118.60901	80.97141	1811.98462	-3357.43896	2845.76807	1034.34521						 
